<svg xmlns="http://www.w3.org/2000/svg" width="200" height="200" viewBox="0 0 200 200" fill="none"><mask id="mask0_1106_324" style="mask-type:alpha" maskUnits="userSpaceOnUse" x="0" y="0" width="200" height="200"><rect width="200" height="200" fill="#D9D9D9"></rect></mask><g mask="url(#mask0_1106_324)"><path d="M133.538 181.621C132.548 181.621 131.715 181.267 131.028 180.559L96.0801 145.58C95.7467 145.247 95.4967 144.872 95.3197 144.434C95.1426 144.007 95.0488 143.559 95.0488 143.09C95.0488 142.622 95.1426 142.174 95.3197 141.736C95.4967 141.309 95.7467 140.924 96.0801 140.601L146.038 90.6328C146.371 90.2995 146.756 90.0495 147.184 89.8724C147.621 89.6953 148.069 89.6016 148.538 89.6016C148.996 89.6016 149.454 89.6953 149.881 89.8724C150.309 90.0495 150.694 90.2995 151.027 90.6328L186.006 125.612C186.683 126.299 187.027 127.122 187.027 128.091C187.037 129.07 186.693 129.903 186.006 130.601L136.038 180.559C135.35 181.267 134.517 181.621 133.538 181.621ZM103.57 143.111L133.538 173.069L178.516 128.091L148.413 98.1223L103.57 143.111Z" fill="#E40010"></path><mask id="mask1_1106_324" style="mask-type:luminance" maskUnits="userSpaceOnUse" x="76" y="137" width="63" height="63"><path d="M76.7188 137.332H138.051V199.998H76.7188V137.332Z" fill="white"></path></mask><g mask="url(#mask1_1106_324)"><path d="M80.4672 199.719C79.8942 199.719 79.3526 199.583 78.8422 199.323C78.3422 199.052 77.9255 198.687 77.5922 198.219C77.2589 197.76 77.061 197.24 76.9776 196.677C76.8943 196.104 76.9568 195.552 77.1443 195.021L95.2274 142.011C95.3316 141.73 95.467 141.469 95.6232 141.219C95.7899 140.969 95.9878 140.74 96.2065 140.542C96.4357 140.344 96.6753 140.178 96.9461 140.042C97.2065 139.907 97.4878 139.803 97.7794 139.73C98.0711 139.667 98.3628 139.636 98.6648 139.647C98.9565 139.647 99.2482 139.699 99.5398 139.782C99.8315 139.865 100.102 139.98 100.363 140.126C100.613 140.282 100.852 140.459 101.061 140.667L136.039 175.656C136.966 176.573 137.289 177.667 136.998 178.938C136.706 180.208 135.935 181.063 134.706 181.479L81.6963 199.573C81.2901 199.698 80.8838 199.739 80.4672 199.719ZM100.071 149.615L86.1546 190.49L127.206 176.573L100.071 149.615Z" fill="#E40010"></path></g><mask id="mask2_1106_324" style="mask-type:luminance" maskUnits="userSpaceOnUse" x="76" y="169" width="33" height="32"><path d="M76.7188 169.336H108.718V200.002H76.7188V169.336Z" fill="white"></path></mask><g mask="url(#mask2_1106_324)"><path d="M80.4672 199.72C79.8942 199.72 79.3526 199.584 78.8422 199.324C78.3422 199.053 77.9255 198.688 77.5922 198.22C77.2589 197.761 77.061 197.24 76.9776 196.678C76.8943 196.105 76.9568 195.553 77.1443 195.022L84.9879 171.907C85.2588 171.105 85.7483 170.491 86.4671 170.043C87.1858 169.595 87.9671 169.428 88.8004 169.543C93.5816 170.147 97.6649 172.157 101.061 175.584C104.456 178.991 106.467 183.084 107.102 187.845C107.217 188.678 107.05 189.459 106.602 190.178C106.165 190.897 105.54 191.386 104.738 191.657L81.6234 199.511C81.2484 199.647 80.863 199.709 80.4672 199.72ZM90.6754 177.209L86.1546 190.49L99.4357 185.97C98.7273 183.918 97.6024 182.116 96.0711 180.584C94.5295 179.043 92.7274 177.918 90.6754 177.209Z" fill="#E40010"></path></g><path d="M183.499 133.116L143.541 93.117L156.041 80.638C157.062 79.6797 158.207 78.9401 159.51 78.4297C160.801 77.9089 162.145 77.6484 163.541 77.6484C164.926 77.6484 166.27 77.9089 167.572 78.4297C168.864 78.9401 170.02 79.6797 171.03 80.638L196.009 105.617C196.499 106.117 196.936 106.648 197.322 107.231C197.717 107.804 198.04 108.419 198.301 109.054C198.572 109.7 198.769 110.367 198.905 111.044C199.04 111.731 199.113 112.419 199.113 113.117C199.113 113.804 199.04 114.492 198.905 115.179C198.769 115.856 198.572 116.523 198.301 117.169C198.04 117.804 197.717 118.419 197.322 119.002C196.936 119.575 196.499 120.106 196.009 120.606L183.499 133.116ZM153.541 93.117L183.499 123.117L191.03 115.617C191.363 115.294 191.624 114.908 191.801 114.471C191.978 114.033 192.072 113.585 192.072 113.117C192.072 112.638 191.978 112.19 191.801 111.752C191.624 111.315 191.363 110.94 191.03 110.606L166.082 85.6171C165.749 85.2942 165.374 85.0338 164.937 84.8567C164.509 84.6796 164.062 84.5963 163.593 84.5963C163.124 84.5963 162.676 84.6796 162.239 84.8567C161.812 85.0338 161.426 85.2942 161.103 85.6171L153.541 93.117Z" fill="#E40010"></path><path d="M133.538 181.624C132.549 181.624 131.715 181.27 131.028 180.562L121.059 170.603C120.726 170.27 120.465 169.885 120.288 169.447C120.111 169.02 120.018 168.562 120.018 168.093C120.018 167.624 120.111 167.166 120.288 166.728C120.465 166.301 120.726 165.916 121.059 165.583L171.027 115.615C171.361 115.292 171.736 115.031 172.173 114.854C172.6 114.677 173.048 114.594 173.517 114.594C173.986 114.594 174.434 114.677 174.861 114.854C175.298 115.031 175.673 115.292 176.006 115.615L186.006 125.614C186.683 126.302 187.027 127.125 187.027 128.094C187.038 129.073 186.694 129.906 186.006 130.604L136.038 180.562C135.351 181.27 134.517 181.624 133.538 181.624ZM128.549 168.093L133.538 173.072L178.517 128.094L173.538 123.114L128.549 168.093Z" fill="#E40010"></path><path d="M108.549 156.642C107.569 156.663 106.715 156.34 106.007 155.653L96.0384 145.653C95.7155 145.32 95.4655 144.934 95.278 144.507C95.1009 144.08 95.0176 143.622 95.0176 143.163C95.0176 142.695 95.1009 142.247 95.278 141.809C95.4655 141.382 95.7155 140.997 96.0384 140.663L146.038 90.6328C146.371 90.2995 146.756 90.0495 147.184 89.8724C147.621 89.6953 148.069 89.6016 148.538 89.6016C148.996 89.6016 149.454 89.6953 149.881 89.8724C150.309 90.0495 150.694 90.2995 151.027 90.6328L161.027 100.633C161.704 101.32 162.048 102.143 162.048 103.112C162.058 104.081 161.715 104.924 161.027 105.612L111.059 155.653C110.361 156.33 109.528 156.653 108.549 156.642ZM103.57 143.111L108.549 148.09L153.538 103.112L148.413 98.1223L103.57 143.111Z" fill="#E40010"></path><mask id="mask3_1106_324" style="mask-type:luminance" maskUnits="userSpaceOnUse" x="0" y="110" width="72" height="89"><path d="M0 110.66H71.3845V198.659H0V110.66Z" fill="white"></path></mask><g mask="url(#mask3_1106_324)"><path d="M67.145 198.047H3.54162C3.07287 198.047 2.61455 197.964 2.18747 197.787C1.74998 197.599 1.37498 197.349 1.04165 197.016C0.708324 196.683 0.447913 196.308 0.27083 195.87C0.0937495 195.433 0 194.985 0 194.516V173.318C0 172.849 0.0937495 172.402 0.27083 171.964C0.447913 171.527 0.708324 171.152 1.04165 170.818C1.37498 170.485 1.74998 170.235 2.18747 170.047C2.61455 169.87 3.07287 169.787 3.54162 169.787H35.3433V155.652H3.54162C3.07287 155.652 2.61455 155.558 2.18747 155.381C1.74998 155.204 1.37498 154.943 1.04165 154.61C0.708324 154.287 0.447913 153.902 0.27083 153.464C0.0937495 153.037 0 152.589 0 152.121V130.913C0 130.444 0.0937495 129.996 0.27083 129.558C0.447913 129.131 0.708324 128.746 1.04165 128.413C1.37498 128.09 1.74998 127.829 2.18747 127.652C2.61455 127.475 3.07287 127.381 3.54162 127.381H56.5409V116.777C56.5409 116.309 56.6347 115.861 56.8118 115.423C56.9888 114.996 57.2493 114.611 57.5722 114.277C57.9055 113.954 58.2909 113.694 58.718 113.517C59.1555 113.34 59.6034 113.246 60.0721 113.246C60.5409 113.246 60.9888 113.34 61.4263 113.517C61.8638 113.694 62.2388 113.954 62.5721 114.277C62.9054 114.611 63.1554 114.996 63.3429 115.423C63.52 115.861 63.6033 116.309 63.6033 116.777V130.913C63.6033 131.381 63.52 131.829 63.3429 132.267C63.1554 132.704 62.9054 133.079 62.5721 133.412C62.2388 133.746 61.8638 133.996 61.4263 134.183C60.9888 134.36 60.5409 134.444 60.0721 134.444H7.07282V148.579H38.8745C39.3432 148.579 39.7911 148.673 40.2286 148.85C40.6557 149.027 41.0411 149.287 41.3745 149.621C41.7078 149.944 41.9578 150.329 42.1349 150.766C42.3119 151.194 42.4057 151.652 42.4057 152.121V173.318C42.4057 173.787 42.3119 174.235 42.1349 174.672C41.9578 175.099 41.7078 175.485 41.3745 175.818C41.0411 176.152 40.6557 176.402 40.2286 176.579C39.7911 176.756 39.3432 176.849 38.8745 176.849H7.07282V190.985H67.145C67.6137 190.985 68.0616 191.078 68.4887 191.255C68.9262 191.433 69.3116 191.693 69.6449 192.016C69.9678 192.349 70.2283 192.735 70.4053 193.162C70.5824 193.599 70.6762 194.047 70.6762 194.516C70.6762 194.985 70.5824 195.433 70.4053 195.87C70.2283 196.308 69.9678 196.683 69.6449 197.016C69.3116 197.349 68.9262 197.599 68.4887 197.787C68.0616 197.964 67.6137 198.047 67.145 198.047Z" fill="#E40010"></path></g><path d="M73.8529 92.0521H45.5824C45.1136 92.0521 44.6657 91.9584 44.2387 91.7813C43.8012 91.6042 43.4157 91.3438 43.0824 91.0105C42.7595 90.6876 42.4991 90.3022 42.322 89.8647C42.1449 89.4376 42.0512 88.9897 42.0512 88.5209V81.4481C42.0408 80.2606 41.5616 79.3231 40.6033 78.6252C39.5616 77.8232 38.5721 76.969 37.645 76.0523C36.7075 75.1357 35.8325 74.167 35.02 73.1357C34.1971 72.1149 33.4575 71.042 32.7701 69.9274C32.093 68.8024 31.4784 67.6462 30.9367 66.4587C30.3951 65.2608 29.9368 64.0421 29.5513 62.7921C29.1555 61.5421 28.843 60.2713 28.6139 58.9797C28.3847 57.688 28.2284 56.3964 28.1659 55.0839C28.093 53.7818 28.1034 52.4693 28.1868 51.1673C28.2805 49.8548 28.4472 48.5631 28.6972 47.2819C28.9472 45.9902 29.2805 44.7298 29.6868 43.4799C30.093 42.2403 30.5722 41.0216 31.1347 39.8341C31.6867 38.6466 32.3117 37.5008 33.0201 36.3966C33.718 35.2925 34.4784 34.23 35.3117 33.2092C36.1346 32.1988 37.0304 31.2404 37.9783 30.3342C38.9262 29.4384 39.9262 28.5946 40.9679 27.8134C42.0199 27.0322 43.1241 26.3238 44.2595 25.678C45.4053 25.0322 46.572 24.4593 47.7907 23.9593C48.999 23.4593 50.2386 23.0322 51.499 22.6885C52.7594 22.3447 54.0406 22.0739 55.3323 21.8864C56.6343 21.6989 57.9364 21.5947 59.2385 21.5635C60.5509 21.5322 61.8634 21.5843 63.1655 21.7197C64.4676 21.8551 65.7592 22.0635 67.03 22.3655C68.3113 22.6572 69.5612 23.0218 70.7904 23.4697C72.0195 23.9176 73.2174 24.4384 74.3841 25.0426C75.5507 25.6363 76.6757 26.303 77.7591 27.0322C78.8424 27.7717 79.884 28.5634 80.8632 29.428C81.8528 30.2925 82.7798 31.2092 83.6548 32.1883C84.5194 33.1675 85.3319 34.1987 86.0714 35.2716C86.8214 36.3549 87.4985 37.4695 88.1027 38.6258C88.7068 39.7924 89.2381 40.9799 89.6964 42.209C90.1651 43.4382 90.5401 44.6882 90.8422 45.959C91.1547 47.2298 91.3735 48.5215 91.5193 49.8235C91.811 52.5631 91.738 55.2818 91.3214 58.0005C90.9047 60.7192 90.1443 63.3442 89.0402 65.865C87.9464 68.3858 86.5402 70.7191 84.8319 72.8753C83.134 75.0315 81.1757 76.9377 78.9778 78.5836C78.0403 79.2919 77.5611 80.2398 77.5611 81.4169V88.4793C77.5716 88.9688 77.4778 89.4376 77.2903 89.8855C77.1028 90.3334 76.832 90.7292 76.4778 91.0626C76.1341 91.4063 75.7278 91.6563 75.2695 91.8334C74.8112 92.0001 74.3424 92.073 73.8529 92.0521ZM49.124 84.9793H70.3216V81.4481C70.3216 79.7919 70.6966 78.2086 71.4466 76.7294C72.1966 75.2399 73.2279 74.0003 74.5612 73.0003C75.3528 72.4066 76.1028 71.7712 76.8111 71.0941C77.5299 70.4066 78.1965 69.6878 78.8215 68.917C79.4465 68.1566 80.0299 67.3545 80.5611 66.5212C81.0923 65.6879 81.5715 64.8337 81.9986 63.9379C82.4257 63.0525 82.8007 62.1359 83.1131 61.2088C83.4361 60.2713 83.6965 59.3234 83.9048 58.3547C84.1027 57.3859 84.2485 56.4068 84.3423 55.4276C84.4256 54.4485 84.4569 53.4589 84.4256 52.4693C84.3944 51.4798 84.3111 50.5006 84.1652 49.5214C84.009 48.5527 83.8111 47.584 83.5402 46.6361C83.2798 45.6777 82.9569 44.7507 82.5819 43.834C82.2069 42.9174 81.7798 42.032 81.3007 41.1674C80.8215 40.3132 80.2903 39.4799 79.7069 38.6778C79.1236 37.8862 78.4986 37.1154 77.832 36.3966C77.1549 35.6779 76.4466 34.9904 75.6862 34.355C74.9362 33.7196 74.1445 33.1258 73.3216 32.5842C70.1967 30.5113 66.7696 29.2196 63.0613 28.6988C59.3426 28.1884 55.6968 28.5009 52.124 29.6467C49.8011 30.3654 47.6449 31.4071 45.6345 32.7717C43.6241 34.1362 41.8637 35.7612 40.3325 37.6466C38.8116 39.532 37.5929 41.6049 36.6763 43.8549C35.77 46.0944 35.2075 48.4277 34.9888 50.8443C34.8013 52.9485 34.8846 55.0422 35.2284 57.1255C35.5825 59.1984 36.1763 61.2088 37.0408 63.1358C37.895 65.0629 38.9783 66.8545 40.2908 68.5108C41.5929 70.1566 43.0928 71.6253 44.7699 72.8961C46.1345 73.8961 47.2074 75.1461 47.9678 76.6565C48.7386 78.1565 49.1136 79.7606 49.124 81.4481V84.9793Z" fill="#E40010"></path><path d="M66.79 106.185H52.6548C51.9569 106.185 51.2694 106.112 50.5819 105.976C49.9048 105.841 49.2382 105.643 48.5924 105.372C47.957 105.112 47.3424 104.778 46.7591 104.393C46.1861 104.008 45.6445 103.57 45.1549 103.08C44.6653 102.58 44.2278 102.049 43.8424 101.466C43.4466 100.893 43.1237 100.278 42.8633 99.6326C42.5924 98.9972 42.3945 98.3306 42.2591 97.6535C42.1237 96.966 42.0508 96.2785 42.0508 95.5806V88.5182C42.0508 88.0494 42.1445 87.5911 42.3216 87.164C42.4987 86.7265 42.7591 86.3411 43.082 86.0182C43.4153 85.6849 43.8008 85.4245 44.2383 85.2474C44.6653 85.0703 45.1132 84.9766 45.582 84.9766H73.8525C74.3212 84.9766 74.7691 85.0703 75.2066 85.2474C75.6337 85.4245 76.0191 85.6849 76.3524 86.0182C76.6857 86.3411 76.9357 86.7265 77.1128 87.164C77.3003 87.5911 77.3837 88.0494 77.3837 88.5182V95.5806C77.3837 96.2785 77.3212 96.966 77.1857 97.6535C77.0503 98.3306 76.842 98.9972 76.5816 99.6326C76.3108 100.278 75.9878 100.893 75.6024 101.466C75.217 102.049 74.7795 102.58 74.2795 103.08C73.79 103.57 73.2587 104.008 72.6754 104.393C72.0921 104.778 71.4879 105.112 70.8421 105.372C70.1962 105.643 69.54 105.841 68.8525 105.976C68.1754 106.112 67.4775 106.185 66.79 106.185ZM49.1236 92.0494V95.5806C49.1236 96.0493 49.2069 96.4972 49.384 96.9347C49.5715 97.3618 49.8215 97.7472 50.1548 98.0806C50.4882 98.4139 50.8632 98.6639 51.3007 98.841C51.7382 99.0285 52.1861 99.1118 52.6548 99.1118H66.79C67.2588 99.1118 67.7067 99.0285 68.1338 98.841C68.5713 98.6639 68.9567 98.4139 69.29 98.0806C69.6129 97.7472 69.8733 97.3618 70.0504 96.9347C70.2275 96.4972 70.3212 96.0493 70.3212 95.5806V92.0494H49.1236Z" fill="#E40010"></path><mask id="mask4_1106_324" style="mask-type:luminance" maskUnits="userSpaceOnUse" x="55" y="0" width="11" height="15"><path d="M55.0293 0H65.6958V14.6665H55.0293V0Z" fill="white"></path></mask><g mask="url(#mask4_1106_324)"><path d="M59.7168 14.3149C59.248 14.3149 58.8001 14.2212 58.3626 14.0441C57.9355 13.867 57.5501 13.6066 57.2168 13.2733C56.8939 12.9504 56.6335 12.5649 56.4564 12.1274C56.2793 11.7004 56.1855 11.2525 56.1855 10.7837V3.71089C56.1855 3.24215 56.2793 2.79424 56.4564 2.35674C56.6335 1.92967 56.8939 1.54425 57.2168 1.21092C57.5501 0.888011 57.9355 0.627598 58.3626 0.450517C58.8001 0.273434 59.248 0.179688 59.7168 0.179688C60.1855 0.179688 60.6334 0.273434 61.0709 0.450517C61.5084 0.627598 61.8834 0.888011 62.2167 1.21092C62.55 1.54425 62.8 1.92967 62.9875 2.35674C63.1646 2.79424 63.248 3.24215 63.248 3.71089V10.7837C63.248 11.2525 63.1646 11.7004 62.9875 12.1274C62.8 12.5649 62.55 12.9504 62.2167 13.2733C61.8834 13.6066 61.5084 13.867 61.0709 14.0441C60.6334 14.2212 60.1855 14.3149 59.7168 14.3149Z" fill="#E40010"></path></g><path d="M29.7186 26.7186C28.7603 26.7082 27.927 26.3644 27.2499 25.6874L22.2292 20.7083C21.8958 20.3749 21.6458 19.9895 21.4583 19.552C21.2812 19.1249 21.1875 18.6666 21.1875 18.1979C21.1875 17.7291 21.2812 17.2708 21.4583 16.8437C21.6458 16.4062 21.8958 16.0208 22.2292 15.6875C22.5625 15.3542 22.9479 15.1042 23.3854 14.9271C23.8125 14.7396 24.2708 14.6562 24.7395 14.6562C25.2083 14.6562 25.6666 14.7396 26.0937 14.9167C26.5312 15.1042 26.9166 15.3542 27.2499 15.6875L32.229 20.7083C32.5624 21.0416 32.8123 21.4166 32.9894 21.8541C33.1665 22.2812 33.2603 22.7291 33.2603 23.1978C33.2603 23.6665 33.1665 24.1145 32.9894 24.5415C32.8123 24.979 32.5624 25.354 32.229 25.6874C31.5311 26.3748 30.6978 26.7186 29.7186 26.7186Z" fill="#E40010"></path><path d="M17.3228 56.7213H10.25C9.78121 56.7213 9.3333 56.6275 8.8958 56.4504C8.46873 56.2629 8.08332 56.0129 7.74999 55.6796C7.41666 55.3463 7.16666 54.9713 6.98958 54.5338C6.80208 54.1067 6.71875 53.6484 6.71875 53.1796C6.71875 52.7109 6.80208 52.263 6.98958 51.8255C7.16666 51.3984 7.41666 51.013 7.74999 50.6797C8.08332 50.3568 8.46873 50.0963 8.8958 49.9193C9.3333 49.7422 9.78121 49.6484 10.25 49.6484H17.3228C17.7915 49.6484 18.2394 49.7422 18.6665 49.9193C19.104 50.0963 19.4894 50.3568 19.8123 50.6797C20.1457 51.013 20.4061 51.3984 20.5832 51.8255C20.7602 52.263 20.854 52.7109 20.854 53.1796C20.854 53.6484 20.7602 54.1067 20.5832 54.5338C20.4061 54.9713 20.1457 55.3463 19.8123 55.6796C19.4894 56.0129 19.104 56.2629 18.6665 56.4504C18.2394 56.6275 17.7915 56.7213 17.3228 56.7213Z" fill="#E40010"></path><path d="M24.7395 91.7009C23.7604 91.7009 22.9271 91.3676 22.2292 90.6697C21.8958 90.3467 21.6354 89.9613 21.4583 89.5238C21.2708 89.0863 21.1875 88.6384 21.1875 88.1697C21.1875 87.6905 21.2708 87.2426 21.4583 86.8051C21.6354 86.3676 21.8958 85.9926 22.2292 85.6593L27.2499 80.6698C27.5624 80.3052 27.9478 80.0031 28.3957 79.7948C28.8332 79.5761 29.302 79.4615 29.7916 79.4406C30.2915 79.4198 30.7603 79.5031 31.2186 79.6802C31.6769 79.8573 32.0832 80.1281 32.4269 80.4719C32.7811 80.826 33.0415 81.2219 33.2186 81.6802C33.3957 82.1385 33.479 82.6177 33.4582 83.1073C33.4478 83.5968 33.3228 84.0656 33.1144 84.5135C32.8957 84.951 32.604 85.3364 32.229 85.6593L27.2499 90.6697C26.552 91.3676 25.7187 91.7009 24.7395 91.7009Z" fill="#E40010"></path><path d="M94.7068 91.7009C93.7276 91.7009 92.8839 91.3676 92.1964 90.6697L87.2069 85.6593C86.8319 85.3364 86.5402 84.951 86.3319 84.5135C86.1132 84.0656 85.9986 83.5968 85.9777 83.1073C85.9569 82.6177 86.0402 82.1385 86.2173 81.6802C86.3944 81.2219 86.6652 80.826 87.009 80.4719C87.3631 80.1281 87.759 79.8573 88.2173 79.6802C88.6756 79.5031 89.1548 79.4198 89.6444 79.4406C90.1339 79.4615 90.6027 79.5761 91.0506 79.7948C91.4881 80.0031 91.8735 80.3052 92.1964 80.6698L97.2068 85.6593C97.5401 85.9926 97.8005 86.3676 97.988 86.8051C98.1651 87.2426 98.2588 87.6905 98.2588 88.1697C98.2588 88.6384 98.1651 89.0863 97.988 89.5238C97.8005 89.9613 97.5401 90.3467 97.2068 90.6697C96.5193 91.3676 95.6755 91.7009 94.7068 91.7009Z" fill="#E40010"></path><path d="M109.185 56.7213H102.123C101.654 56.7213 101.206 56.6275 100.769 56.4504C100.342 56.2629 99.9564 56.0129 99.623 55.6796C99.2897 55.3463 99.0397 54.9713 98.8522 54.5338C98.6751 54.1067 98.5918 53.6484 98.5918 53.1796C98.5918 52.7109 98.6751 52.263 98.8522 51.8255C99.0397 51.3984 99.2897 51.013 99.623 50.6797C99.9564 50.3568 100.342 50.0963 100.769 49.9193C101.206 49.7422 101.654 49.6484 102.123 49.6484H109.185C109.654 49.6484 110.112 49.7422 110.54 49.9193C110.977 50.0963 111.352 50.3568 111.685 50.6797C112.019 51.013 112.279 51.3984 112.456 51.8255C112.633 52.263 112.727 52.7109 112.727 53.1796C112.727 53.6484 112.633 54.1067 112.456 54.5338C112.279 54.9713 112.019 55.3463 111.685 55.6796C111.352 56.0129 110.977 56.2629 110.54 56.4504C110.112 56.6275 109.654 56.7213 109.185 56.7213Z" fill="#E40010"></path><path d="M89.7168 26.7186C88.7376 26.7186 87.9043 26.3748 87.2064 25.6874C86.8835 25.354 86.623 24.979 86.446 24.5415C86.2689 24.1145 86.1855 23.6665 86.1855 23.1978C86.1855 22.7291 86.2689 22.2812 86.446 21.8541C86.623 21.4166 86.8835 21.0416 87.2064 20.7083L92.1959 15.6875C92.5292 15.3542 92.9042 15.1042 93.3417 14.9167C93.7792 14.7396 94.2271 14.6562 94.6959 14.6562C95.175 14.6562 95.6229 14.7396 96.0604 14.9271C96.4875 15.1042 96.8729 15.3542 97.2062 15.6875C97.5396 16.0208 97.8 16.4062 97.9771 16.8437C98.1541 17.2708 98.2479 17.7291 98.2479 18.1979C98.2479 18.6666 98.1541 19.1249 97.9771 19.552C97.8 19.9895 97.5396 20.3749 97.2062 20.7083L92.1959 25.6874C91.5084 26.3644 90.6855 26.7082 89.7168 26.7186Z" fill="#E40010"></path><path d="M73.8539 56.7159C73.3852 56.7159 72.9373 56.6221 72.4998 56.445C72.0727 56.2575 71.6873 56.0075 71.354 55.6742C71.0206 55.3409 70.7706 54.9659 70.5936 54.5284C70.4061 54.1013 70.3227 53.643 70.3227 53.1742C70.3227 52.4763 70.2498 51.7888 70.1144 51.1118C69.979 50.4243 69.7811 49.768 69.5102 49.1222C69.2498 48.4764 68.9165 47.8618 68.5311 47.2889C68.1457 46.7056 67.7082 46.1743 67.2186 45.6848C66.729 45.1848 66.1874 44.7473 65.6145 44.3619C65.0311 43.9765 64.4166 43.6535 63.7812 43.3827C63.1353 43.1223 62.4687 42.914 61.7916 42.7786C61.1041 42.6431 60.4166 42.5806 59.7187 42.5806C59.25 42.5806 58.802 42.4869 58.3646 42.3098C57.9375 42.1327 57.5521 41.8723 57.2187 41.539C56.8958 41.2057 56.6354 40.8307 56.4583 40.3932C56.2812 39.9661 56.1875 39.5078 56.1875 39.039C56.1875 38.5703 56.2812 38.1224 56.4583 37.6953C56.6354 37.2578 56.8958 36.8724 57.2187 36.5495C57.5521 36.2161 57.9375 35.9557 58.3646 35.7786C58.802 35.6016 59.25 35.5078 59.7187 35.5078C60.8854 35.5078 62.0312 35.6224 63.1666 35.8516C64.302 36.0807 65.4061 36.4141 66.479 36.8515C67.5519 37.2995 68.5728 37.8411 69.5415 38.4869C70.4998 39.1328 71.3956 39.8619 72.2185 40.6848C73.031 41.5077 73.7706 42.3931 74.406 43.3619C75.0518 44.3306 75.6039 45.341 76.0414 46.4139C76.4893 47.4868 76.8226 48.591 77.0518 49.7264C77.2706 50.8722 77.3851 52.018 77.3851 53.1742C77.3851 53.643 77.3018 54.1013 77.1247 54.5284C76.9372 54.9659 76.6872 55.3409 76.3539 55.6742C76.0206 56.0075 75.6352 56.2575 75.2081 56.445C74.7706 56.6221 74.3227 56.7159 73.8539 56.7159Z" fill="#E40010"></path></g></svg>