<svg xmlns="http://www.w3.org/2000/svg" xmlns:xlink="http://www.w3.org/1999/xlink" fill="#E40010" id="Capa_1" width="800px" height="800px" viewBox="0 0 64.135 64.135" xml:space="preserve"><g id="SVGRepo_bgCarrier" stroke-width="0"></g><g id="SVGRepo_tracerCarrier" stroke-linecap="round" stroke-linejoin="round"></g><g id="SVGRepo_iconCarrier"> <g> <g> <path d="M39.172,54.864v-5.009c0.038-0.049,0.079-0.098,0.107-0.152c0.235-0.461,5.777-11.355,5.777-16.371 c0-7.162-5.827-12.988-12.99-12.988c-7.163,0-12.99,5.826-12.99,12.988c0,4.205,4.636,13.361,5.91,15.797 c-0.005,0.041-0.024,0.076-0.024,0.119v5.616c0,0.554,0.448,1,1,1h12.208C38.724,55.864,39.172,55.418,39.172,54.864z M30.18,37.275h3.775v10.846c0,0.045,0.02,0.084,0.024,0.127h-3.826c0.005-0.043,0.025-0.082,0.025-0.127L30.18,37.275 L30.18,37.275z M32.068,22.344c6.06,0,10.99,4.93,10.99,10.988c0,3.947-4.169,12.653-5.287,14.916H35.93 c0.005-0.043,0.025-0.082,0.025-0.127V37.275h1.025c0.553,0,1-0.447,1-1s-0.447-1-1-1h-1.025v-0.5c0-0.553-0.448-1-1-1 s-1,0.447-1,1v0.5H30.18v-0.5c0-0.553-0.448-1-1-1c-0.552,0-1,0.447-1,1v0.5h-1.335c-0.552,0-1,0.447-1,1s0.448,1,1,1h1.335 v10.846c0,0.045,0.02,0.084,0.025,0.127h-1.422c-1.822-3.467-5.705-11.555-5.705-14.916 C21.078,27.273,26.008,22.344,32.068,22.344z"></path> <path d="M29.18,57.117c-0.552,0-1,0.446-1,1c0,0.553,0.448,1,1,1h5.775c0.552,0,1-0.447,1-1c0-0.554-0.448-1-1-1H29.18z"></path> <path d="M33.068,13.04V6.018c0-0.553-0.449-1-1-1c-0.552,0-1,0.447-1,1v7.022c0,0.553,0.448,1,1,1 C32.62,14.04,33.068,13.592,33.068,13.04z"></path> <path d="M49.085,21.087c0.256,0,0.512-0.098,0.707-0.293l4.965-4.966c0.391-0.391,0.391-1.023,0-1.414s-1.023-0.391-1.414,0 l-4.965,4.966c-0.391,0.391-0.391,1.023,0,1.414C48.573,20.989,48.829,21.087,49.085,21.087z"></path> <path d="M45.551,7.988c-0.502-0.232-1.096-0.014-1.328,0.487l-2.95,6.371c-0.231,0.501-0.014,1.096,0.487,1.327 c0.136,0.063,0.279,0.093,0.42,0.093c0.377,0,0.739-0.215,0.908-0.58l2.95-6.371C46.27,8.814,46.052,8.22,45.551,7.988z"></path> <path d="M20.344,7.237c-0.514,0.201-0.768,0.782-0.565,1.296l2.565,6.534c0.154,0.395,0.532,0.635,0.931,0.635 c0.121,0,0.245-0.022,0.365-0.069c0.514-0.201,0.768-0.782,0.565-1.296L21.64,7.803C21.438,7.29,20.856,7.037,20.344,7.237z"></path> <path d="M1.812,26.417c-0.184,0.521,0.089,1.092,0.61,1.275l6.622,2.34c0.11,0.039,0.223,0.058,0.333,0.058 c0.412,0,0.798-0.256,0.943-0.667c0.184-0.521-0.089-1.092-0.61-1.275l-6.622-2.34C2.569,25.624,1.997,25.896,1.812,26.417z"></path> <path d="M61.713,46.514l-6.622-2.338c-0.521-0.18-1.092,0.091-1.276,0.611c-0.184,0.521,0.09,1.092,0.61,1.275l6.622,2.337 c0.11,0.038,0.223,0.058,0.333,0.058c0.412,0,0.798-0.258,0.943-0.668C62.507,47.269,62.232,46.697,61.713,46.514z"></path> <path d="M11.258,47.049c-0.239-0.498-0.837-0.711-1.334-0.471l-6.335,3.028c-0.498,0.237-0.709,0.836-0.471,1.334 c0.172,0.358,0.53,0.567,0.903,0.567c0.145,0,0.292-0.03,0.431-0.098l6.335-3.029C11.285,48.145,11.496,47.547,11.258,47.049z"></path> <path d="M54.211,27.629l6.335-3.027c0.499-0.238,0.709-0.835,0.471-1.334c-0.238-0.498-0.835-0.709-1.333-0.471l-6.335,3.027 c-0.499,0.238-0.709,0.835-0.471,1.334c0.172,0.358,0.53,0.568,0.903,0.568C53.925,27.728,54.072,27.695,54.211,27.629z"></path> <path d="M14.146,21.01c0.194,0.189,0.446,0.284,0.698,0.284c0.26,0,0.52-0.101,0.716-0.302c0.034-0.035,0.048-0.08,0.077-0.118 c0.039-0.029,0.084-0.045,0.12-0.08c0.391-0.391,0.391-1.023,0-1.414l-4.963-4.966c-0.391-0.391-1.024-0.391-1.415,0 c-0.049,0.05-0.074,0.111-0.111,0.167c-0.055,0.037-0.117,0.063-0.165,0.112c-0.386,0.396-0.378,1.028,0.018,1.414L14.146,21.01z"></path> <path d="M9.017,37.898c-0.02-0.553-0.498-1.02-1.034-0.965l-7.017,0.242C0.414,37.195-0.019,37.658,0,38.209 C0.02,38.75,0.462,39.176,1,39.176c0.012,0,0.023,0,0.035-0.002l7.017-0.242C8.604,38.914,9.036,38.451,9.017,37.898z"></path> <path d="M63.1,35.033l-7.017,0.243c-0.552,0.019-0.984,0.481-0.965,1.033c0.019,0.541,0.462,0.966,0.999,0.966 c0.012,0,0.022,0,0.035-0.001l7.017-0.243c0.552-0.02,0.984-0.48,0.965-1.033C64.115,35.445,63.651,34.983,63.1,35.033z"></path> </g> </g> </g></svg>