<svg xmlns="http://www.w3.org/2000/svg" viewBox="-61 0 512 512"><path d="m150 0v30h-60v30h-90v452h390v-452h-90v-30h-60v-30zm210 90v392h-330v-392h60v30h210v-30zm-90-30v30h-150v-30h60v-30h30v30zm0 0"></path><path d="m105 204.785156-19.394531-19.390625-21.210938 21.210938 40.605469 40.609375 70.605469-70.609375-21.210938-21.210938zm0 0"></path><path d="m105 309.785156-19.394531-19.390625-21.210938 21.210938 40.605469 40.609375 70.605469-70.609375-21.210938-21.210938zm0 0"></path><path d="m105 414.785156-19.394531-19.390625-21.210938 21.210938 40.605469 40.609375 70.605469-70.609375-21.210938-21.210938zm0 0"></path><path d="m210 391h120v30h-120zm0 0"></path><path d="m210 181h120v30h-120zm0 0"></path><path d="m210 286h120v30h-120zm0 0"></path></svg>