<svg xmlns="http://www.w3.org/2000/svg" width="200" height="200" viewBox="0 0 200 200" fill="none"><mask id="mask0_1106_325" style="mask-type:alpha" maskUnits="userSpaceOnUse" x="0" y="0" width="200" height="200"><rect width="200" height="200" fill="#D9D9D9"></rect></mask><g mask="url(#mask0_1106_325)"><mask id="mask1_1106_325" style="mask-type:luminance" maskUnits="userSpaceOnUse" x="96" y="0" width="10" height="16"><path d="M96.5273 0H105.271V15.2237H96.5273V0Z" fill="white"></path></mask><g mask="url(#mask1_1106_325)"><path d="M100.003 13.3282C99.5585 13.3282 99.1316 13.2514 98.7218 13.0806C98.3119 12.9098 97.9533 12.6708 97.6374 12.3549C97.33 12.0389 97.091 11.6803 96.9202 11.2705C96.7494 10.8692 96.6641 10.4423 96.6641 9.99829V3.32992C96.6641 2.88593 96.7494 2.46756 96.9202 2.05772C97.091 1.64788 97.33 1.28928 97.6374 0.973361C97.9533 0.665984 98.3119 0.418373 98.7218 0.256148C99.1316 0.0853825 99.5585 0 100.003 0C100.438 0 100.865 0.0853825 101.275 0.256148C101.685 0.418373 102.043 0.665984 102.359 0.973361C102.666 1.28928 102.906 1.64788 103.076 2.05772C103.247 2.46756 103.332 2.88593 103.332 3.32992V9.99829C103.332 10.4423 103.247 10.8692 103.076 11.2705C102.906 11.6803 102.666 12.0389 102.359 12.3549C102.043 12.6708 101.685 12.9098 101.275 13.0806C100.865 13.2514 100.438 13.3282 100.003 13.3282Z" fill="#E40010"></path></g><path d="M113.33 16.9059C113.031 16.9059 112.749 16.8717 112.468 16.7949C112.186 16.718 111.913 16.607 111.665 16.4619C111.409 16.3082 111.178 16.1374 110.973 15.9325C110.768 15.719 110.589 15.4885 110.444 15.2409C110.299 14.9847 110.188 14.7201 110.111 14.4383C110.034 14.148 110 13.8662 110 13.5759C110 13.2771 110.034 12.9953 110.111 12.7136C110.188 12.4233 110.299 12.1586 110.444 11.9024L113.774 6.13058C113.996 5.74635 114.286 5.4219 114.636 5.15722C114.986 4.88399 115.371 4.69615 115.797 4.58515C116.224 4.46562 116.66 4.44 117.095 4.49977C117.539 4.551 117.949 4.69615 118.325 4.91815C118.709 5.1316 119.033 5.4219 119.307 5.77197C119.571 6.12204 119.768 6.50626 119.879 6.93317C119.998 7.36009 120.024 7.79554 119.964 8.23099C119.913 8.67498 119.768 9.08481 119.554 9.4605L116.216 15.2409C115.917 15.7532 115.516 16.163 114.995 16.4619C114.483 16.7607 113.928 16.9059 113.33 16.9059Z" fill="#E40010"></path><path d="M123.087 26.666C122.336 26.666 121.661 26.4354 121.064 25.9829C120.458 25.5218 120.065 24.9241 119.868 24.1984C119.672 23.4641 119.715 22.7554 120.005 22.0553C120.295 21.3637 120.765 20.8258 121.422 20.4416L127.194 17.1116C127.578 16.8897 127.988 16.753 128.432 16.6933C128.868 16.642 129.295 16.6677 129.722 16.7787C130.149 16.8982 130.541 17.086 130.891 17.3593C131.241 17.6239 131.523 17.9484 131.745 18.3326C131.967 18.7168 132.112 19.1267 132.164 19.5621C132.223 20.0061 132.198 20.433 132.078 20.8599C131.967 21.2869 131.779 21.6796 131.506 22.0297C131.241 22.3798 130.908 22.6615 130.533 22.8835L124.752 26.222C124.24 26.5208 123.685 26.666 123.087 26.666Z" fill="#E40010"></path><path d="M133.335 40.0004H126.667C126.223 40.0004 125.796 39.915 125.386 39.7443C124.985 39.5735 124.617 39.3344 124.31 39.0185C123.994 38.7111 123.755 38.344 123.584 37.9427C123.414 37.5329 123.328 37.1059 123.328 36.6619C123.328 36.218 123.414 35.7996 123.584 35.3897C123.755 34.9799 123.994 34.6213 124.31 34.3054C124.617 33.998 124.985 33.7504 125.386 33.5882C125.796 33.4174 126.223 33.332 126.667 33.332H133.335C133.77 33.332 134.197 33.4174 134.607 33.5882C135.017 33.7504 135.376 33.998 135.692 34.3054C135.999 34.6213 136.238 34.9799 136.409 35.3897C136.579 35.7996 136.665 36.218 136.665 36.6619C136.665 37.1059 136.579 37.5329 136.409 37.9427C136.238 38.344 135.999 38.7111 135.692 39.0185C135.376 39.3344 135.017 39.5735 134.607 39.7443C134.197 39.915 133.77 40.0004 133.335 40.0004Z" fill="#E40010"></path><path d="M86.6622 16.9086C86.0731 16.9086 85.5095 16.7634 84.9972 16.4646C84.4764 16.1657 84.0751 15.7559 83.7763 15.2436L80.4378 9.46321C80.2158 9.08752 80.0792 8.67769 80.0194 8.2337C79.9682 7.79825 79.9938 7.3628 80.1048 6.93588C80.2244 6.50897 80.4122 6.12475 80.6854 5.77468C80.9501 5.41608 81.2746 5.13431 81.6588 4.91232C82.043 4.69033 82.4528 4.55371 82.8968 4.49394C83.3323 4.43418 83.7677 4.46833 84.1947 4.57933C84.6216 4.69886 85.0058 4.8867 85.3559 5.15993C85.7059 5.42461 85.9962 5.74907 86.2182 6.13329L89.5481 11.9051C89.6933 12.1613 89.8043 12.426 89.8811 12.7163C89.958 12.998 89.9921 13.2798 89.9921 13.5786C89.9921 13.8689 89.958 14.1507 89.8811 14.441C89.8043 14.7228 89.6933 14.9875 89.5481 15.2436C89.403 15.4912 89.2237 15.7217 89.0188 15.9352C88.8138 16.1401 88.5833 16.3109 88.3272 16.4646C88.0796 16.6097 87.8063 16.7207 87.5246 16.7976C87.2428 16.8744 86.961 16.9086 86.6622 16.9086Z" fill="#E40010"></path><path d="M76.9049 26.6658C76.3073 26.6658 75.7523 26.5207 75.24 26.2219L69.4596 22.8834C69.0839 22.6614 68.7509 22.3796 68.4862 22.0296C68.213 21.6795 68.0251 21.2867 67.9056 20.8598C67.7946 20.4329 67.769 20.006 67.8202 19.562C67.88 19.1266 68.0251 18.7167 68.2386 18.3325C68.4606 17.9483 68.7509 17.6238 69.101 17.3506C69.451 17.0859 69.8353 16.8895 70.2622 16.7785C70.6976 16.6675 71.1245 16.6334 71.5685 16.6932C72.004 16.7529 72.4138 16.8895 72.798 17.1115L78.5699 20.4415C79.2273 20.8257 79.6969 21.3636 79.9872 22.0552C80.2775 22.7553 80.3202 23.464 80.1238 24.1983C79.9275 24.924 79.5347 25.5217 78.9285 25.9828C78.3308 26.4353 77.6563 26.6658 76.9049 26.6658Z" fill="#E40010"></path><path d="M73.3284 40.0004H66.6685C66.2245 40.0004 65.7976 39.915 65.3878 39.7443C64.978 39.5735 64.6194 39.3344 64.3034 39.0185C63.9961 38.7111 63.757 38.344 63.5862 37.9427C63.4155 37.5329 63.3301 37.1059 63.3301 36.6619C63.3301 36.218 63.4155 35.7996 63.5862 35.3897C63.757 34.9799 63.9961 34.6213 64.3034 34.3054C64.6194 33.998 64.978 33.7504 65.3878 33.5882C65.7976 33.4174 66.2245 33.332 66.6685 33.332H73.3284C73.7724 33.332 74.1993 33.4174 74.6091 33.5882C75.0189 33.7504 75.3776 33.998 75.6849 34.3054C76.0008 34.6213 76.2399 34.9799 76.4107 35.3897C76.5814 35.7996 76.6668 36.218 76.6668 36.6619C76.6668 37.1059 76.5814 37.5329 76.4107 37.9427C76.2399 38.344 76.0008 38.7111 75.6849 39.0185C75.3776 39.3344 75.0189 39.5735 74.6091 39.7443C74.1993 39.915 73.7724 40.0004 73.3284 40.0004Z" fill="#E40010"></path><mask id="mask2_1106_325" style="mask-type:luminance" maskUnits="userSpaceOnUse" x="33" y="185" width="9" height="15"><path d="M33.1406 185.711H41.8838V199.995H33.1406V185.711Z" fill="white"></path></mask><g mask="url(#mask2_1106_325)"><path d="M36.6659 199.997C36.2219 199.997 35.795 199.912 35.3937 199.741C34.9838 199.57 34.6167 199.331 34.3093 199.015C33.9934 198.708 33.7543 198.349 33.5835 197.939C33.4128 197.529 33.3359 197.102 33.3359 196.658V189.999C33.3359 189.555 33.4128 189.128 33.5835 188.718C33.7543 188.308 33.9934 187.949 34.3093 187.642C34.6167 187.326 34.9838 187.087 35.3937 186.916C35.795 186.746 36.2219 186.66 36.6659 186.66C37.1098 186.66 37.5368 186.746 37.9381 186.916C38.3479 187.087 38.7065 187.326 39.0224 187.642C39.3383 187.949 39.5774 188.308 39.7482 188.718C39.9104 189.128 39.9958 189.555 39.9958 189.999V196.658C39.9958 197.102 39.9104 197.529 39.7482 197.939C39.5774 198.349 39.3383 198.708 39.0224 199.015C38.7065 199.331 38.3479 199.57 37.9381 199.741C37.5368 199.912 37.1098 199.997 36.6659 199.997Z" fill="#E40010"></path></g><path d="M53.3321 195.532C52.743 195.532 52.1795 195.378 51.6672 195.079C51.1463 194.789 50.745 194.379 50.4462 193.858L47.1077 188.086C46.8857 187.702 46.7491 187.292 46.6894 186.857C46.6381 186.421 46.6638 185.986 46.7748 185.559C46.8943 185.132 47.0821 184.739 47.3554 184.389C47.62 184.039 47.9445 183.757 48.3287 183.535C48.7129 183.313 49.1228 183.177 49.5668 183.117C50.0022 183.057 50.4377 183.083 50.8646 183.202C51.2915 183.313 51.6757 183.51 52.0258 183.774C52.3758 184.048 52.6661 184.372 52.8881 184.756L56.2181 190.528C56.3632 190.784 56.4742 191.049 56.5511 191.331C56.6279 191.613 56.662 191.903 56.662 192.193C56.662 192.483 56.6279 192.774 56.5511 193.055C56.4742 193.337 56.3632 193.61 56.2181 193.858C56.0729 194.114 55.8936 194.345 55.6887 194.55C55.4838 194.755 55.2532 194.934 54.9971 195.079C54.7495 195.224 54.4763 195.335 54.1945 195.412C53.9127 195.489 53.631 195.532 53.3321 195.532Z" fill="#E40010"></path><path d="M65.5253 183.332C64.9362 183.332 64.3812 183.178 63.8689 182.888L58.0885 179.549C57.7043 179.327 57.3798 179.046 57.1151 178.696C56.8419 178.345 56.6541 177.953 56.5345 177.526C56.4235 177.099 56.3979 176.663 56.4491 176.228C56.5089 175.793 56.6455 175.383 56.8675 174.998C57.0895 174.614 57.3798 174.29 57.7299 174.017C58.0799 173.752 58.4642 173.556 58.8911 173.445C59.318 173.325 59.7534 173.299 60.1889 173.359C60.6329 173.419 61.0427 173.556 61.4269 173.778L67.1988 177.107C67.8562 177.483 68.3258 178.021 68.6161 178.721C68.9064 179.421 68.9491 180.13 68.7528 180.864C68.5564 181.59 68.1636 182.188 67.5574 182.64C66.9597 183.101 66.2852 183.332 65.5253 183.332Z" fill="#E40010"></path><path d="M69.9983 166.664H63.3299C62.8859 166.664 62.4676 166.579 62.0577 166.408C61.6479 166.238 61.2893 165.998 60.9734 165.683C60.6574 165.375 60.4184 165.017 60.2476 164.607C60.0854 164.197 60 163.77 60 163.326C60 162.891 60.0854 162.464 60.2476 162.054C60.4184 161.644 60.6574 161.285 60.9734 160.969C61.2893 160.662 61.6479 160.423 62.0577 160.252C62.4676 160.081 62.8859 159.996 63.3299 159.996H69.9983C70.4423 159.996 70.8692 160.081 71.2705 160.252C71.6803 160.423 72.0389 160.662 72.3549 160.969C72.6708 161.285 72.9098 161.644 73.0806 162.054C73.2428 162.464 73.3282 162.891 73.3282 163.326C73.3282 163.77 73.2428 164.197 73.0806 164.607C72.9098 165.017 72.6708 165.375 72.3549 165.683C72.0389 165.998 71.6803 166.238 71.2705 166.408C70.8692 166.579 70.4423 166.664 69.9983 166.664Z" fill="#E40010"></path><path d="M19.9986 195.532C19.6998 195.532 19.418 195.489 19.1362 195.412C18.8459 195.335 18.5813 195.224 18.3251 195.079C18.0775 194.934 17.847 194.755 17.6421 194.55C17.4286 194.345 17.2578 194.114 17.1127 193.858C16.9675 193.61 16.8565 193.337 16.7797 193.055C16.7028 192.774 16.6602 192.483 16.6602 192.193C16.6602 191.903 16.7028 191.613 16.7797 191.331C16.8565 191.049 16.9675 190.784 17.1127 190.528L20.4426 184.756C20.6646 184.372 20.9549 184.048 21.305 183.774C21.655 183.51 22.0393 183.313 22.4662 183.202C22.8931 183.083 23.3285 183.057 23.764 183.117C24.208 183.177 24.6178 183.313 25.002 183.535C25.3777 183.757 25.7107 184.039 25.9754 184.389C26.2486 184.739 26.4365 185.132 26.5475 185.559C26.667 185.986 26.6926 186.421 26.6328 186.857C26.5816 187.292 26.4365 187.702 26.2145 188.086L22.8845 193.858C22.5857 194.379 22.1759 194.789 21.6636 195.079C21.1427 195.378 20.5878 195.532 19.9986 195.532Z" fill="#E40010"></path><path d="M7.79635 183.332C7.04499 183.332 6.37046 183.101 5.76425 182.64C5.16657 182.188 4.77381 181.59 4.57743 180.864C4.38105 180.13 4.42374 179.421 4.71404 178.721C5.00434 178.021 5.47395 177.483 6.13139 177.107L11.9033 173.778C12.2875 173.556 12.6973 173.419 13.1328 173.359C13.5767 173.299 14.0037 173.325 14.4306 173.445C14.8575 173.556 15.2502 173.752 15.6003 174.017C15.9504 174.29 16.2407 174.614 16.4627 174.998C16.6761 175.383 16.8213 175.793 16.8725 176.228C16.9323 176.663 16.9067 177.099 16.7957 177.526C16.6761 177.953 16.4883 178.345 16.2151 178.696C15.9504 179.046 15.6174 179.327 15.2417 179.549L9.46131 182.888C8.94902 183.178 8.39403 183.332 7.79635 183.332Z" fill="#E40010"></path><mask id="mask3_1106_325" style="mask-type:luminance" maskUnits="userSpaceOnUse" x="0" y="159" width="14" height="10"><path d="M0 159.484H13.4648V168.228H0V159.484Z" fill="white"></path></mask><g mask="url(#mask3_1106_325)"><path d="M9.99829 166.664H3.32992C2.88593 166.664 2.45902 166.579 2.05772 166.408C1.64788 166.238 1.28074 165.998 0.973361 165.683C0.657446 165.375 0.418374 165.017 0.247609 164.607C0.0768443 164.197 0 163.77 0 163.326C0 162.891 0.0768443 162.464 0.247609 162.054C0.418374 161.644 0.657446 161.285 0.973361 160.969C1.28074 160.662 1.64788 160.423 2.05772 160.252C2.45902 160.081 2.88593 159.996 3.32992 159.996H9.99829C10.4423 159.996 10.8607 160.081 11.2705 160.252C11.6803 160.423 12.0389 160.662 12.3549 160.969C12.6622 161.285 12.9098 161.644 13.0721 162.054C13.2428 162.464 13.3282 162.891 13.3282 163.326C13.3282 163.77 13.2428 164.197 13.0721 164.607C12.9098 165.017 12.6622 165.375 12.3549 165.683C12.0389 165.998 11.6803 166.238 11.2705 166.408C10.8607 166.579 10.4423 166.664 9.99829 166.664Z" fill="#E40010"></path></g><mask id="mask4_1106_325" style="mask-type:luminance" maskUnits="userSpaceOnUse" x="159" y="185" width="10" height="15"><path d="M159.914 185.711H168.657V199.995H159.914V185.711Z" fill="white"></path></mask><g mask="url(#mask4_1106_325)"><path d="M163.33 199.997C162.886 199.997 162.468 199.912 162.058 199.741C161.648 199.57 161.289 199.331 160.973 199.015C160.657 198.708 160.418 198.349 160.248 197.939C160.085 197.529 160 197.102 160 196.658V189.999C160 189.555 160.085 189.128 160.248 188.718C160.418 188.308 160.657 187.949 160.973 187.642C161.289 187.326 161.648 187.087 162.058 186.916C162.468 186.746 162.886 186.66 163.33 186.66C163.774 186.66 164.201 186.746 164.611 186.916C165.012 187.087 165.379 187.326 165.686 187.642C166.002 187.949 166.241 188.308 166.412 188.718C166.583 189.128 166.668 189.555 166.668 189.999V196.658C166.668 197.102 166.583 197.529 166.412 197.939C166.241 198.349 166.002 198.708 165.686 199.015C165.379 199.331 165.012 199.57 164.611 199.741C164.201 199.912 163.774 199.997 163.33 199.997Z" fill="#E40010"></path></g><path d="M180.006 195.532C179.408 195.532 178.853 195.378 178.332 195.079C177.82 194.789 177.41 194.379 177.111 193.858L173.781 188.086C173.559 187.702 173.414 187.292 173.363 186.857C173.303 186.421 173.329 185.986 173.448 185.559C173.559 185.132 173.747 184.739 174.02 184.389C174.294 184.039 174.618 183.757 175.002 183.535C175.378 183.313 175.788 183.177 176.232 183.117C176.667 183.057 177.103 183.083 177.53 183.202C177.957 183.313 178.341 183.51 178.691 183.774C179.05 184.048 179.331 184.372 179.553 184.756L182.883 190.528C183.028 190.784 183.139 191.049 183.216 191.331C183.293 191.613 183.336 191.903 183.336 192.193C183.336 192.483 183.293 192.774 183.216 193.055C183.139 193.337 183.028 193.61 182.883 193.858C182.738 194.114 182.567 194.345 182.354 194.55C182.149 194.755 181.918 194.934 181.671 195.079C181.415 195.224 181.15 195.335 180.868 195.412C180.578 195.489 180.296 195.532 180.006 195.532Z" fill="#E40010"></path><path d="M192.199 183.332C191.601 183.332 191.046 183.178 190.534 182.888L184.762 179.549C184.378 179.327 184.045 179.046 183.78 178.696C183.507 178.345 183.319 177.953 183.208 177.526C183.089 177.099 183.063 176.663 183.123 176.228C183.174 175.793 183.319 175.383 183.541 174.998C183.755 174.614 184.045 174.29 184.395 174.017C184.745 173.752 185.138 173.556 185.565 173.445C185.992 173.325 186.419 173.299 186.863 173.359C187.298 173.419 187.708 173.556 188.092 173.778L193.864 177.107C194.521 177.483 194.991 178.021 195.281 178.721C195.572 179.421 195.614 180.13 195.418 180.864C195.222 181.59 194.829 182.188 194.231 182.64C193.625 183.101 192.95 183.332 192.199 183.332Z" fill="#E40010"></path><mask id="mask5_1106_325" style="mask-type:luminance" maskUnits="userSpaceOnUse" x="186" y="159" width="14" height="10"><path d="M186.143 159.484H200V168.228H186.143V159.484Z" fill="white"></path></mask><g mask="url(#mask5_1106_325)"><path d="M196.662 166.664H189.994C189.559 166.664 189.132 166.579 188.722 166.408C188.312 166.238 187.953 165.998 187.637 165.683C187.33 165.375 187.082 165.017 186.92 164.607C186.749 164.197 186.664 163.77 186.664 163.326C186.664 162.891 186.749 162.464 186.92 162.054C187.082 161.644 187.33 161.285 187.637 160.969C187.953 160.662 188.312 160.423 188.722 160.252C189.132 160.081 189.559 159.996 189.994 159.996H196.662C197.106 159.996 197.533 160.081 197.943 160.252C198.344 160.423 198.712 160.662 199.019 160.969C199.335 161.285 199.574 161.644 199.745 162.054C199.915 162.464 200.001 162.891 200.001 163.326C200.001 163.77 199.915 164.197 199.745 164.607C199.574 165.017 199.335 165.375 199.019 165.683C198.712 165.998 198.344 166.238 197.943 166.408C197.533 166.579 197.106 166.664 196.662 166.664Z" fill="#E40010"></path></g><path d="M146.664 195.532C146.365 195.532 146.083 195.489 145.802 195.412C145.52 195.335 145.247 195.224 144.999 195.079C144.743 194.934 144.512 194.755 144.307 194.55C144.102 194.345 143.923 194.114 143.778 193.858C143.633 193.61 143.522 193.337 143.445 193.055C143.368 192.774 143.334 192.483 143.334 192.193C143.334 191.903 143.368 191.613 143.445 191.331C143.522 191.049 143.633 190.784 143.778 190.528L147.108 184.756C147.33 184.372 147.62 184.048 147.97 183.774C148.32 183.51 148.705 183.313 149.131 183.202C149.558 183.083 149.994 183.057 150.429 183.117C150.873 183.177 151.283 183.313 151.667 183.535C152.052 183.757 152.376 184.039 152.641 184.389C152.914 184.739 153.102 185.132 153.221 185.559C153.332 185.986 153.358 186.421 153.307 186.857C153.247 187.292 153.11 187.702 152.888 188.086L149.55 193.858C149.251 194.379 148.85 194.789 148.329 195.079C147.817 195.378 147.262 195.532 146.664 195.532Z" fill="#E40010"></path><path d="M134.47 183.332C133.71 183.332 133.036 183.101 132.438 182.64C131.841 182.188 131.439 181.59 131.243 180.864C131.047 180.13 131.098 179.421 131.38 178.721C131.67 178.021 132.139 177.483 132.797 177.107L138.569 173.778C138.953 173.556 139.363 173.419 139.807 173.359C140.242 173.299 140.678 173.325 141.105 173.445C141.531 173.556 141.916 173.752 142.266 174.017C142.616 174.29 142.906 174.614 143.128 174.998C143.35 175.383 143.487 175.793 143.547 176.228C143.598 176.663 143.572 177.099 143.461 177.526C143.342 177.953 143.154 178.345 142.881 178.696C142.616 179.046 142.291 179.327 141.907 179.549L136.127 182.888C135.614 183.178 135.059 183.332 134.47 183.332Z" fill="#E40010"></path><path d="M136.662 166.664H129.994C129.55 166.664 129.132 166.579 128.722 166.408C128.312 166.238 127.953 165.998 127.637 165.683C127.322 165.375 127.082 165.017 126.912 164.607C126.749 164.197 126.664 163.77 126.664 163.326C126.664 162.891 126.749 162.464 126.912 162.054C127.082 161.644 127.322 161.285 127.637 160.969C127.953 160.662 128.312 160.423 128.722 160.252C129.132 160.081 129.55 159.996 129.994 159.996H136.662C137.106 159.996 137.525 160.081 137.935 160.252C138.344 160.423 138.703 160.662 139.019 160.969C139.335 161.285 139.574 161.644 139.745 162.054C139.907 162.464 139.992 162.891 139.992 163.326C139.992 163.77 139.907 164.197 139.745 164.607C139.574 165.017 139.335 165.375 139.019 165.683C138.703 165.998 138.344 166.238 137.935 166.408C137.525 166.579 137.106 166.664 136.662 166.664Z" fill="#E40010"></path><path d="M192.352 94.3084C191.405 93.3607 190.414 92.4556 189.372 91.6103C188.331 90.7565 187.255 89.9539 186.136 89.2111C185.018 88.4597 183.865 87.7681 182.678 87.1363C181.492 86.5044 180.279 85.9324 179.041 85.4115C177.795 84.8993 176.531 84.4467 175.25 84.054C173.961 83.6697 172.655 83.3453 171.34 83.0806C170.025 82.8159 168.693 82.6195 167.352 82.4915C166.02 82.3549 164.68 82.2865 163.331 82.2865C161.99 82.2865 160.65 82.3549 159.309 82.4915C157.969 82.6195 156.645 82.8159 155.322 83.0806C154.007 83.3453 152.701 83.6697 151.42 84.054C150.131 84.4467 148.867 84.8993 147.62 85.4115C146.382 85.9324 145.17 86.5044 143.983 87.1363C142.796 87.7681 141.644 88.4597 140.525 89.2111C139.407 89.9539 138.331 90.7565 137.289 91.6103C136.256 92.4556 135.257 93.3607 134.309 94.3084L124.311 104.315C121.493 107.133 118.283 109.387 114.68 111.086C111.077 112.785 107.294 113.827 103.332 114.203V100.003H110.001C110.445 100.003 110.863 99.918 111.273 99.7473C111.683 99.5765 112.041 99.3374 112.357 99.0215C112.665 98.7141 112.912 98.3555 113.075 97.9457C113.245 97.5359 113.331 97.109 113.331 96.665V79.1274C114.868 78.0516 116.259 76.8135 117.506 75.3962C118.744 73.9874 119.794 72.4505 120.665 70.7855C121.536 69.1206 122.202 67.3788 122.646 65.5516C123.099 63.7329 123.329 61.8801 123.329 60.0017C123.329 49.7814 107.098 20 100.003 20C92.8987 20 76.6675 49.7814 76.6675 60.0017C76.6675 61.8801 76.898 63.7329 77.3506 65.5516C77.7946 67.3788 78.4605 69.1206 79.3314 70.7855C80.2024 72.4505 81.2526 73.9874 82.4906 75.3962C83.7372 76.8135 85.1289 78.0516 86.6658 79.1274V96.665C86.6658 97.109 86.7512 97.5359 86.922 97.9457C87.0842 98.3555 87.3318 98.7141 87.6392 99.0215C87.9551 99.3374 88.3137 99.5765 88.7235 99.7473C89.1334 99.918 89.5603 100.003 89.9957 100.003H96.6641V114.203C92.7023 113.827 88.9199 112.785 85.3168 111.086C81.7136 109.387 78.5032 107.133 75.6856 104.307L65.6873 94.3084C64.7396 93.3607 63.7406 92.4556 62.7075 91.6018C61.6658 90.7565 60.59 89.9539 59.4715 89.2025C58.353 88.4597 57.2003 87.7681 56.0135 87.1363C54.8267 86.5044 53.6142 85.9238 52.3762 85.4115C51.1296 84.8993 49.8659 84.4467 48.5767 84.054C47.2959 83.6697 45.9896 83.3368 44.6747 83.0806C43.3513 82.8159 42.0278 82.6195 40.6873 82.4829C39.3468 82.3549 38.0063 82.2865 36.6658 82.2865C35.3168 82.2865 33.9763 82.3549 32.6443 82.4829C31.3038 82.6195 29.9804 82.8159 28.6569 83.0806C27.342 83.3368 26.0357 83.6697 24.7464 84.054C23.4657 84.4467 22.202 84.8993 20.9554 85.4115C19.7174 85.9238 18.5049 86.5044 17.3181 87.1363C16.1313 87.7681 14.9786 88.4597 13.8601 89.2025C12.7416 89.9539 11.6658 90.7565 10.6241 91.6018C9.59101 92.4556 8.59203 93.3607 7.64429 94.3084C7.33691 94.6243 7.10638 94.9829 6.94415 95.3928C6.78192 95.7941 6.70508 96.221 6.70508 96.6564C6.71362 97.0919 6.799 97.5102 6.96976 97.9115C7.13199 98.3214 7.37106 98.6715 7.67844 98.9874C7.99436 99.2947 8.34442 99.5338 8.75426 99.696C9.15556 99.8668 9.57393 99.9522 10.0094 99.9607C10.4448 99.9607 10.8717 99.8839 11.273 99.7217C11.6829 99.5594 12.0415 99.3289 12.3574 99.0215C15.1665 96.2039 18.3769 93.9498 21.98 92.2507C25.5832 90.5516 29.3656 89.5099 33.3359 89.1342V100.003H26.6675C26.2235 100.003 25.7966 100.089 25.3868 100.26C24.9855 100.422 24.6183 100.669 24.311 100.977C23.995 101.293 23.756 101.651 23.5852 102.061C23.4144 102.471 23.3291 102.889 23.3291 103.333V120.871C21.7922 121.947 20.4004 123.193 19.1624 124.602C17.9243 126.011 16.8656 127.548 15.9947 129.213C15.1238 130.878 14.4663 132.628 14.0138 134.447C13.5613 136.274 13.3393 138.127 13.3308 140.005C13.3308 150.217 29.562 179.998 36.6658 179.998C43.7611 179.998 60.0008 150.217 60.0008 140.005C59.9923 138.127 59.7703 136.274 59.3178 134.447C58.8653 132.628 58.2078 130.878 57.3369 129.213C56.466 127.548 55.4073 126.011 54.1692 124.602C52.9312 123.193 51.5394 121.947 50.0026 120.871V103.333C50.0026 102.889 49.9172 102.471 49.7464 102.061C49.5756 101.651 49.3366 101.293 49.0207 100.977C48.7133 100.669 48.3461 100.422 47.9448 100.26C47.535 100.089 47.1081 100.003 46.6641 100.003H39.9957V89.1342C43.966 89.5099 47.7485 90.5516 51.3516 92.2507C54.9547 93.9498 58.1651 96.2039 60.9742 99.0301L70.9725 109.028C71.9288 109.976 72.9192 110.873 73.9609 111.726C75.0026 112.58 76.0784 113.374 77.1969 114.126C78.3154 114.869 79.4681 115.56 80.6549 116.192C81.8417 116.824 83.0541 117.396 84.2922 117.908C85.5388 118.42 86.8024 118.873 88.0832 119.266C89.3724 119.65 90.6788 119.983 91.9937 120.239C93.3086 120.504 94.6405 120.7 95.9725 120.828C97.313 120.965 98.6535 121.025 100.003 121.025C101.343 121.025 102.684 120.965 104.024 120.828C105.356 120.7 106.688 120.504 108.003 120.239C109.318 119.983 110.624 119.65 111.913 119.266C113.194 118.873 114.458 118.42 115.704 117.908C116.942 117.396 118.155 116.824 119.342 116.192C120.529 115.56 121.681 114.869 122.8 114.126C123.918 113.374 124.994 112.58 126.036 111.726C127.077 110.873 128.068 109.976 129.024 109.028L139.022 99.0301C141.84 96.2039 145.042 93.9498 148.645 92.2507C152.248 90.5516 156.031 89.5099 160.001 89.1342V100.003H153.332C152.888 100.003 152.462 100.089 152.06 100.26C151.65 100.422 151.283 100.669 150.976 100.977C150.66 101.293 150.421 101.651 150.25 102.061C150.079 102.471 150.003 102.889 150.003 103.333V120.871C148.457 121.947 147.065 123.193 145.827 124.602C144.589 126.011 143.531 127.548 142.66 129.213C141.789 130.878 141.131 132.628 140.679 134.447C140.235 136.274 140.004 138.127 139.996 140.005C139.996 150.217 156.235 179.998 163.331 179.998C170.435 179.998 186.666 150.217 186.666 140.005C186.657 138.127 186.435 136.274 185.983 134.447C185.53 132.628 184.873 130.878 184.002 129.213C183.131 127.548 182.072 126.011 180.834 124.602C179.596 123.193 178.204 121.947 176.668 120.871V103.333C176.668 102.889 176.582 102.471 176.411 102.061C176.241 101.651 176.002 101.293 175.686 100.977C175.378 100.669 175.02 100.422 174.61 100.26C174.2 100.089 173.773 100.003 173.329 100.003H166.669V89.1342C170.631 89.5099 174.413 90.5516 178.017 92.2507C181.62 93.9498 184.83 96.2039 187.639 99.0301C187.955 99.3289 188.314 99.5594 188.724 99.7217C189.125 99.8839 189.552 99.9693 189.987 99.9607C190.423 99.9607 190.841 99.8753 191.251 99.7046C191.652 99.5338 192.002 99.2947 192.318 98.9874C192.626 98.68 192.865 98.3214 193.035 97.9201C193.198 97.5188 193.283 97.0919 193.291 96.6564C193.291 96.221 193.215 95.8026 193.052 95.3928C192.89 94.9915 192.66 94.6243 192.352 94.3169V94.3084ZM83.3359 60.0017C83.3359 51.4805 95.3834 31.9023 100.003 27.2831C104.622 31.9023 116.669 51.4805 116.669 60.0017C116.661 61.4618 116.473 62.8962 116.089 64.3135C115.704 65.7223 115.149 67.0543 114.424 68.3265C113.689 69.5902 112.81 70.7343 111.777 71.7674C110.744 72.8005 109.591 73.6885 108.327 74.4228C107.815 74.7131 107.405 75.123 107.115 75.6352C106.816 76.1561 106.662 76.7111 106.662 77.3002V79.9983H93.3342V77.3002C93.3342 76.7111 93.1805 76.1561 92.8817 75.6352C92.5914 75.123 92.1815 74.7131 91.6692 74.4143C90.4056 73.6885 89.2529 72.8005 88.2198 71.7674C87.1866 70.7343 86.3072 69.5902 85.5729 68.318C84.8472 67.0543 84.2922 65.7223 83.908 64.305C83.5323 62.8962 83.3359 61.4618 83.3359 60.0017ZM93.3342 86.6667H106.662V93.335H93.3342V86.6667ZM53.3325 140.005C53.3325 148.526 41.285 168.096 36.6658 172.724C32.0466 168.096 19.9991 148.526 19.9991 140.005C19.9991 138.537 20.1955 137.102 20.5712 135.693C20.9554 134.285 21.5104 132.944 22.2447 131.68C22.9704 130.417 23.8584 129.264 24.8916 128.231C25.9247 127.198 27.0688 126.318 28.3325 125.584C28.8533 125.285 29.2546 124.884 29.5534 124.363C29.8523 123.851 29.9974 123.296 29.9974 122.698V120H43.3342V122.698C43.3342 123.296 43.4793 123.851 43.7782 124.363C44.077 124.884 44.4783 125.285 44.9991 125.584C46.2628 126.318 47.4069 127.198 48.4401 128.231C49.4732 129.264 50.3526 130.417 51.0869 131.68C51.8212 132.944 52.3762 134.285 52.7519 135.693C53.1361 137.102 53.3239 138.545 53.3325 140.005ZM43.3342 113.332H29.9974V106.672H43.3342V113.332ZM179.997 140.005C179.997 148.526 167.95 168.096 163.331 172.724C158.712 168.096 146.664 148.526 146.664 140.005C146.673 138.537 146.86 137.102 147.245 135.693C147.62 134.285 148.175 132.944 148.91 131.68C149.644 130.417 150.523 129.264 151.557 128.231C152.59 127.198 153.734 126.318 155.006 125.584C155.518 125.285 155.92 124.884 156.218 124.363C156.517 123.851 156.662 123.296 156.662 122.698V120H169.999V122.698C169.999 123.296 170.144 123.851 170.443 124.363C170.742 124.884 171.143 125.285 171.664 125.584C172.928 126.318 174.072 127.198 175.105 128.231C176.138 129.264 177.026 130.417 177.752 131.68C178.486 132.944 179.041 134.285 179.425 135.693C179.801 137.102 179.997 138.545 179.997 140.005ZM169.999 113.332H156.662V106.672H169.999V113.332Z" fill="#E40010"></path><path d="M22.7561 29.9938C21.834 30.0023 21.0485 29.6693 20.3996 29.0204L10.9734 19.5942C10.666 19.2783 10.4184 18.9197 10.2561 18.5098C10.0854 18.1 10 17.6816 10 17.2376C10 16.7936 10.0854 16.3667 10.2561 15.9654C10.4184 15.5556 10.666 15.1884 10.9734 14.8811L20.3996 5.44629C20.724 5.14746 21.0827 4.91692 21.4925 4.7547C21.8938 4.59247 22.3207 4.51562 22.7561 4.51562C23.2001 4.51562 23.6185 4.59247 24.0283 4.7547C24.4296 4.91692 24.7968 5.14746 25.1127 5.44629L34.5475 14.8811C34.8549 15.1884 35.1025 15.5556 35.2647 15.9654C35.4355 16.3667 35.5208 16.7936 35.5208 17.2376C35.5208 17.6816 35.4355 18.1 35.2647 18.5098C35.1025 18.9197 34.8549 19.2783 34.5475 19.5942L25.1127 29.0204C24.4638 29.6693 23.6783 30.0023 22.7561 29.9938ZM18.043 17.2376L22.7561 21.9507L27.4778 17.2376L22.7561 12.516L18.043 17.2376Z" fill="#E40010"></path><path d="M179.996 63.3286C179.339 63.3286 178.69 63.2688 178.05 63.1408C177.401 63.0127 176.777 62.8249 176.171 62.5687C175.565 62.3211 174.984 62.0137 174.438 61.6466C173.9 61.2794 173.388 60.8696 172.927 60.4C172.466 59.9389 172.047 59.4352 171.68 58.8887C171.321 58.3423 171.014 57.7617 170.758 57.1555C170.51 56.5492 170.314 55.926 170.186 55.2856C170.058 54.6367 169.998 53.9878 169.998 53.3303C169.998 52.6729 170.058 52.024 170.186 51.3836C170.314 50.7347 170.51 50.1114 170.758 49.5052C171.014 48.899 171.321 48.3184 171.68 47.7805C172.047 47.234 172.466 46.7217 172.927 46.2607C173.388 45.7996 173.9 45.3812 174.438 45.0141C174.984 44.6555 175.565 44.3481 176.171 44.0919C176.777 43.8443 177.401 43.6565 178.05 43.5284C178.69 43.4003 179.339 43.332 179.996 43.332C180.654 43.332 181.303 43.4003 181.952 43.5284C182.592 43.6565 183.215 43.8443 183.821 44.0919C184.428 44.3481 185.008 44.6555 185.555 45.0141C186.101 45.3812 186.605 45.7996 187.066 46.2607C187.536 46.7217 187.945 47.234 188.313 47.7805C188.68 48.3184 188.987 48.899 189.235 49.5052C189.491 50.1114 189.679 50.7347 189.807 51.3836C189.935 52.024 189.995 52.6729 189.995 53.3303C189.995 53.9878 189.935 54.6367 189.807 55.2856C189.679 55.926 189.482 56.5492 189.235 57.1555C188.979 57.7617 188.671 58.3423 188.313 58.8887C187.945 59.4352 187.527 59.9389 187.066 60.4C186.605 60.8611 186.093 61.2794 185.555 61.6466C185.008 62.0052 184.428 62.3126 183.821 62.5687C183.215 62.8163 182.592 63.0127 181.952 63.1408C181.303 63.2688 180.654 63.3286 179.996 63.3286ZM179.996 50.0004C179.552 50.0004 179.134 50.0858 178.724 50.2566C178.314 50.4188 177.956 50.6664 177.64 50.9738C177.324 51.2897 177.085 51.6483 176.914 52.0581C176.752 52.468 176.666 52.8863 176.666 53.3303C176.666 53.7743 176.752 54.2012 176.914 54.6111C177.085 55.0124 177.324 55.3795 177.64 55.6869C177.956 56.0028 178.314 56.2419 178.724 56.4126C179.134 56.5834 179.552 56.6688 179.996 56.6688C180.44 56.6688 180.867 56.5834 181.277 56.4126C181.678 56.2419 182.046 56.0028 182.353 55.6869C182.669 55.3795 182.908 55.0124 183.079 54.6111C183.249 54.2012 183.335 53.7743 183.335 53.3303C183.335 52.8863 183.249 52.468 183.079 52.0581C182.908 51.6483 182.669 51.2897 182.353 50.9738C182.046 50.6664 181.678 50.4188 181.269 50.2566C180.867 50.0858 180.44 50.0004 179.996 50.0004Z" fill="#E40010"></path><path d="M53.3324 59.9979C53.3324 60.4419 53.2471 60.8688 53.0763 61.2701C52.9055 61.6799 52.6665 62.0385 52.3591 62.3544C52.0432 62.6704 51.6846 62.9094 51.2747 63.0802C50.8649 63.251 50.438 63.3278 50.0025 63.3278C49.5585 63.3278 49.1316 63.251 48.7218 63.0802C48.3119 62.9094 47.9533 62.6704 47.6374 62.3544C47.33 62.0385 47.091 61.6799 46.9202 61.2701C46.7494 60.8688 46.6641 60.4419 46.6641 59.9979C46.6641 59.5539 46.7494 59.127 46.9202 58.7257C47.091 58.3159 47.33 57.9572 47.6374 57.6413C47.9533 57.3254 48.3119 57.0863 48.7218 56.9156C49.1316 56.7534 49.5585 56.668 50.0025 56.668C50.438 56.668 50.8649 56.7534 51.2747 56.9156C51.6846 57.0863 52.0432 57.3254 52.3591 57.6413C52.6665 57.9572 52.9055 58.3159 53.0763 58.7257C53.2471 59.127 53.3324 59.5539 53.3324 59.9979Z" fill="#E40010"></path><path d="M19.9985 46.6619C19.9985 47.1059 19.9131 47.5329 19.7423 47.9427C19.5715 48.3525 19.3325 48.7111 19.0251 49.0185C18.7092 49.3344 18.3506 49.5735 17.9407 49.7443C17.5309 49.915 17.104 50.0004 16.6685 50.0004C16.2245 50.0004 15.7976 49.915 15.3878 49.7443C14.978 49.5735 14.6194 49.3344 14.3034 49.0185C13.9961 48.7111 13.757 48.3525 13.5862 47.9427C13.4155 47.5329 13.3301 47.1059 13.3301 46.6619C13.3301 46.2265 13.4155 45.7996 13.5862 45.3897C13.757 44.9799 13.9961 44.6213 14.3034 44.3054C14.6194 43.998 14.978 43.7589 15.3878 43.5882C15.7976 43.4174 16.2245 43.332 16.6685 43.332C17.104 43.332 17.5309 43.4174 17.9407 43.5882C18.3506 43.7589 18.7092 43.998 19.0251 44.3054C19.3325 44.6213 19.5715 44.9799 19.7423 45.3897C19.9131 45.7996 19.9985 46.2265 19.9985 46.6619Z" fill="#E40010"></path><path d="M183.332 16.6627C183.332 17.1067 183.247 17.525 183.076 17.9349C182.906 18.3447 182.666 18.7033 182.351 19.0192C182.043 19.3266 181.676 19.5742 181.275 19.7364C180.865 19.9072 180.438 19.9926 179.994 19.9926C179.55 19.9926 179.132 19.9072 178.722 19.7364C178.312 19.5742 177.953 19.3266 177.637 19.0192C177.322 18.7033 177.082 18.3447 176.912 17.9349C176.749 17.525 176.664 17.1067 176.664 16.6627C176.664 16.2187 176.749 15.7918 176.912 15.3819C177.082 14.9806 177.322 14.6135 177.637 14.3061C177.953 13.9902 178.312 13.7511 178.722 13.5804C179.132 13.4096 179.55 13.3242 179.994 13.3242C180.438 13.3242 180.865 13.4096 181.275 13.5804C181.676 13.7511 182.043 13.9902 182.351 14.3061C182.666 14.6135 182.906 14.9806 183.076 15.3819C183.247 15.7918 183.332 16.2187 183.332 16.6627Z" fill="#E40010"></path><path d="M153.332 63.326C153.332 63.77 153.247 64.1969 153.076 64.6067C152.906 65.0166 152.666 65.3752 152.359 65.6826C152.043 65.9985 151.685 66.2376 151.275 66.4083C150.865 66.5791 150.438 66.6645 150.003 66.6645C149.559 66.6645 149.132 66.5791 148.722 66.4083C148.312 66.2376 147.953 65.9985 147.637 65.6826C147.33 65.3752 147.091 65.0166 146.92 64.6067C146.749 64.1969 146.664 63.77 146.664 63.326C146.664 62.8906 146.749 62.4636 146.92 62.0538C147.091 61.644 147.33 61.2854 147.637 60.9695C147.953 60.6621 148.312 60.423 148.722 60.2522C149.132 60.0815 149.559 59.9961 150.003 59.9961C150.438 59.9961 150.865 60.0815 151.275 60.2522C151.685 60.423 152.043 60.6621 152.359 60.9695C152.666 61.2854 152.906 61.644 153.076 62.0538C153.247 62.4636 153.332 62.8906 153.332 63.326Z" fill="#E40010"></path><path d="M86.6625 136.662C86.6625 137.106 86.5771 137.533 86.4064 137.943C86.2356 138.344 85.9965 138.711 85.6892 139.019C85.3732 139.334 85.0146 139.573 84.6048 139.744C84.195 139.915 83.768 140 83.3326 140C82.8886 140 82.4617 139.915 82.0519 139.744C81.642 139.573 81.2834 139.334 80.9675 139.019C80.6601 138.711 80.4211 138.344 80.2503 137.943C80.0795 137.533 79.9941 137.106 79.9941 136.662C79.9941 136.218 80.0795 135.8 80.2503 135.39C80.4211 134.98 80.6601 134.621 80.9675 134.305C81.2834 133.998 81.642 133.75 82.0519 133.588C82.4617 133.417 82.8886 133.332 83.3326 133.332C83.768 133.332 84.195 133.417 84.6048 133.588C85.0146 133.75 85.3732 133.998 85.6892 134.305C85.9965 134.621 86.2356 134.98 86.4064 135.39C86.5771 135.8 86.6625 136.218 86.6625 136.662Z" fill="#E40010"></path><path d="M116.668 186.662C116.668 187.106 116.583 187.533 116.412 187.943C116.241 188.344 116.002 188.711 115.686 189.019C115.379 189.334 115.012 189.573 114.611 189.744C114.201 189.915 113.774 190 113.33 190C112.886 190 112.468 189.915 112.058 189.744C111.648 189.573 111.289 189.334 110.973 189.019C110.657 188.711 110.418 188.344 110.248 187.943C110.085 187.533 110 187.106 110 186.662C110 186.218 110.085 185.8 110.248 185.39C110.418 184.98 110.657 184.621 110.973 184.305C111.289 183.998 111.648 183.75 112.058 183.588C112.468 183.417 112.886 183.332 113.33 183.332C113.774 183.332 114.201 183.417 114.611 183.588C115.012 183.75 115.379 183.998 115.686 184.305C116.002 184.621 116.241 184.98 116.412 185.39C116.583 185.8 116.668 186.218 116.668 186.662Z" fill="#E40010"></path></g></svg>