<svg xmlns="http://www.w3.org/2000/svg" id="Layer_1" height="512" viewBox="0 0 511.98 511.98" width="512"><g><path d="m255.98 110.275c8.284 0 15-6.716 15-15v-80.333c-.738-19.881-29.269-19.866-30 0v80.333c0 8.284 6.716 15 15 15z"></path><path d="m181.107 105.881c5.858 5.859 15.357 5.857 21.213 0 5.858-5.858 5.858-15.355 0-21.213l-32.134-32.133c-5.857-5.858-15.355-5.858-21.213 0s-5.858 15.355 0 21.213z"></path><path d="m330.853 105.881 32.134-32.133c5.858-5.858 5.858-15.355 0-21.213-5.857-5.858-15.355-5.857-21.213 0l-32.134 32.134c-5.858 5.857-5.858 15.355 0 21.213 5.859 5.859 15.357 5.856 21.213-.001z"></path><path d="m510.834 436.187c-3.17-7.654-11.945-11.288-19.598-8.118l-52.545 21.765-28.224-68.138c51.495-30.581 66.913-100.172 29.981-150.014l-58.786-79.339c-4.097-5.53-11.433-7.562-17.792-4.928l-107.89 44.69-107.89-44.69c-6.359-2.634-13.695-.602-17.792 4.928l-58.786 79.339c-36.932 49.843-21.513 119.433 29.981 150.014l-28.224 68.138-52.545-21.765c-18.65-6.926-29.554 19.439-11.48 27.716l132.806 55.01c18.65 6.926 29.554-19.439 11.481-27.716l-52.545-21.765 28.223-68.136c57.037 14.542 116.121-22.235 126.772-81.805 10.65 59.57 69.735 96.346 126.772 81.805l28.223 68.136-52.544 21.765c-18.085 8.29-7.153 34.644 11.48 27.716l132.806-55.01c7.652-3.17 11.287-11.944 8.116-19.598zm-284.02-132.302c-7.01 47.103-56.379 75.06-100.407 56.823-48.647-20.15-53.221-73.948-35.104-104.661 18.526 20.574 50.816 31.578 82.272 18.549 20.917-8.664 44.503.357 54.651 19.807zm7.136-47.961c-18.674-13.967-45.572-19.89-71.758-9.086-28.242 11.698-47.833-8.788-52.624-16.127l37.862-51.099 92.193 38.188zm38.387-38.124 92.193-38.188 37.862 51.099c-4.792 7.339-24.382 27.825-52.624 16.127-26.186-10.804-53.084-4.88-71.758 9.086zm113.216 142.907c-44.028 18.237-93.397-9.72-100.407-56.823l-1.411-9.483c10.147-19.45 33.733-28.471 54.651-19.807 31.456 13.029 63.745 2.026 82.272-18.549 18.117 30.714 13.542 84.512-35.105 104.662z"></path></g></svg>