<svg xmlns="http://www.w3.org/2000/svg" width="200" height="200" viewBox="0 0 200 200" fill="none"><mask id="mask0_1106_370" style="mask-type:alpha" maskUnits="userSpaceOnUse" x="0" y="0" width="200" height="200"><rect width="200" height="200" fill="#D9D9D9"></rect></mask><g mask="url(#mask0_1106_370)"><mask id="mask1_1106_370" style="mask-type:luminance" maskUnits="userSpaceOnUse" x="103" y="46" width="97" height="108"><path d="M103.881 46H200V153.882H103.881V46Z" fill="white"></path></mask><g mask="url(#mask1_1106_370)"><path d="M110.826 130.001L104.618 135.49C114.84 147.071 129.567 153.72 145.006 153.72C174.7 153.72 198.866 129.554 198.866 99.8598C198.866 70.1592 174.707 46 145.006 46C129.56 46 114.84 52.6419 104.611 64.2295L110.819 69.7126C119.481 59.9052 131.936 54.2861 145.006 54.2861C170.136 54.2861 190.58 74.7296 190.58 99.8598C190.58 124.984 170.136 145.434 145.006 145.434C131.936 145.434 119.481 139.808 110.826 130.001Z" fill="#E40010"></path></g><path d="M140.863 66.7188V99.8633C140.863 101.119 141.433 102.31 142.417 103.1L163.132 119.672L168.305 113.199L149.149 97.8759V66.7188H140.863Z" fill="#E40010"></path><path d="M37.2871 75.0039H103.576V83.29H37.2871V75.0039Z" fill="#E40010"></path><path d="M0 95.7148H95.2905V104.001H0V95.7148Z" fill="#E40010"></path><path d="M45.5723 116.434H103.575V124.72H45.5723V116.434Z" fill="#E40010"></path></g></svg>