<svg xmlns="http://www.w3.org/2000/svg" width="200" height="200" viewBox="0 0 200 200" fill="none"><path d="M64.0062 44.0062H32.0078V12.0078" stroke="#E40010" stroke-width="4.12" stroke-miterlimit="10" stroke-linecap="round"></path><mask id="mask0_1106_254" style="mask-type:luminance" maskUnits="userSpaceOnUse" x="0" y="0" width="200" height="200"><path d="M0 0H200V200H0V0Z" fill="white"></path></mask><g mask="url(#mask0_1106_254)"><path d="M33.1083 42.8229C49.2491 23.9617 73.2277 12.0078 99.9975 12.0078C148.602 12.0078 188.003 51.4091 188.003 100.003C188.003 148.608 148.602 188.009 99.9975 188.009C51.4033 188.009 12.002 148.608 12.002 100.003C12.002 85.4706 15.5214 71.757 21.7613 59.6818" stroke="#E40010" stroke-width="7" stroke-miterlimit="10"></path></g><path d="M104.005 23.9947C104.005 24.5307 103.904 25.0364 103.702 25.532C103.5 26.0174 103.207 26.4523 102.832 26.8265C102.458 27.2006 102.023 27.4939 101.538 27.6962C101.042 27.8985 100.537 27.9996 100.001 27.9996C99.4747 27.9996 98.969 27.8985 98.4735 27.6962C97.9881 27.4939 97.5532 27.2006 97.179 26.8265C96.8048 26.4523 96.5115 26.0174 96.3093 25.532C96.107 25.0364 96.0059 24.5307 96.0059 23.9947C96.0059 23.4689 96.107 22.9531 96.3093 22.4676C96.5115 21.9822 96.8048 21.5473 97.179 21.1731C97.5532 20.7989 97.9881 20.5057 98.4735 20.3034C98.969 20.1011 99.4747 20 100.001 20C100.537 20 101.042 20.1011 101.538 20.3034C102.023 20.5057 102.458 20.7989 102.832 21.1731C103.207 21.5473 103.5 21.9822 103.702 22.4676C103.904 22.9531 104.005 23.4689 104.005 23.9947Z" fill="#E40010"></path><path d="M104.005 175.999C104.005 176.535 103.904 177.04 103.702 177.526C103.5 178.021 103.207 178.456 102.832 178.83C102.458 179.205 102.023 179.488 101.538 179.7C101.042 179.902 100.537 180.004 100.001 180.004C99.4747 180.004 98.969 179.902 98.4735 179.7C97.9881 179.488 97.5532 179.205 97.179 178.83C96.8048 178.456 96.5115 178.021 96.3093 177.526C96.107 177.04 96.0059 176.535 96.0059 175.999C96.0059 175.473 96.107 174.957 96.3093 174.472C96.5115 173.976 96.8048 173.551 97.179 173.167C97.5532 172.793 97.9881 172.51 98.4735 172.307C98.969 172.105 99.4747 172.004 100.001 172.004C100.537 172.004 101.042 172.105 101.538 172.307C102.023 172.51 102.458 172.793 102.832 173.167C103.207 173.551 103.5 173.976 103.702 174.472C103.904 174.957 104.005 175.473 104.005 175.999Z" fill="#E40010"></path><path d="M180.007 99.9986C180.007 100.535 179.906 101.04 179.704 101.536C179.502 102.021 179.208 102.456 178.834 102.83C178.46 103.205 178.025 103.498 177.54 103.7C177.044 103.902 176.539 104.004 176.003 104.004C175.477 104.004 174.961 103.902 174.475 103.7C173.98 103.498 173.555 103.205 173.181 102.83C172.807 102.456 172.513 102.021 172.311 101.536C172.109 101.04 172.008 100.535 172.008 99.9986C172.008 99.4728 172.109 98.957 172.311 98.4715C172.513 97.976 172.807 97.5512 173.181 97.177C173.555 96.7927 173.98 96.5096 174.475 96.3073C174.961 96.105 175.477 96.0039 176.003 96.0039C176.539 96.0039 177.044 96.105 177.54 96.3073C178.025 96.5096 178.46 96.7927 178.834 97.177C179.208 97.5512 179.502 97.976 179.704 98.4715C179.906 98.957 180.007 99.4728 180.007 99.9986Z" fill="#E40010"></path><path d="M28.0055 99.9986C28.0055 100.535 27.9043 101.04 27.7021 101.536C27.4998 102.021 27.2065 102.456 26.8323 102.83C26.4581 103.205 26.0233 103.498 25.5378 103.7C25.0423 103.902 24.5366 104.004 24.0107 104.004C23.4747 104.004 22.969 103.902 22.4735 103.7C21.9881 103.498 21.5532 103.205 21.179 102.83C20.8048 102.456 20.5115 102.021 20.3093 101.536C20.107 101.04 20.0059 100.535 20.0059 99.9986C20.0059 99.4728 20.107 98.957 20.3093 98.4715C20.5115 97.976 20.8048 97.5512 21.179 97.177C21.5532 96.7927 21.9881 96.5096 22.4735 96.3073C22.969 96.105 23.4747 96.0039 24.0107 96.0039C24.5366 96.0039 25.0423 96.105 25.5378 96.3073C26.0233 96.5096 26.4581 96.7927 26.8323 97.177C27.2065 97.5512 27.4998 97.976 27.7021 98.4715C27.9043 98.957 28.0055 99.4728 28.0055 99.9986Z" fill="#E40010"></path><path d="M169.82 62.0088C169.82 62.5347 169.719 63.0504 169.517 63.5359C169.314 64.0314 169.021 64.4562 168.647 64.8304C168.273 65.2147 167.838 65.4978 167.352 65.7001C166.857 65.9024 166.351 66.0035 165.815 66.0035C165.289 66.0035 164.773 65.9024 164.288 65.7001C163.792 65.4978 163.368 65.2147 162.993 64.8304C162.619 64.4562 162.326 64.0314 162.124 63.5359C161.921 63.0504 161.82 62.5347 161.82 62.0088C161.82 61.4728 161.921 60.9671 162.124 60.4715C162.326 59.9861 162.619 59.5512 162.993 59.177C163.368 58.8029 163.792 58.5096 164.288 58.3073C164.773 58.105 165.289 58.0039 165.815 58.0039C166.351 58.0039 166.857 58.105 167.352 58.3073C167.838 58.5096 168.273 58.8029 168.647 59.177C169.021 59.5512 169.314 59.9861 169.517 60.4715C169.719 60.9671 169.82 61.4728 169.82 62.0088Z" fill="#E40010"></path><path d="M38.1871 138.009C38.1871 138.535 38.086 139.05 37.8837 139.536C37.6814 140.021 37.3881 140.456 37.014 140.83C36.6398 141.205 36.2049 141.498 35.7195 141.7C35.2239 141.902 34.7182 142.004 34.1924 142.004C33.6564 142.004 33.1507 141.902 32.6551 141.7C32.1697 141.498 31.7348 141.205 31.3606 140.83C30.9864 140.456 30.6932 140.021 30.4909 139.536C30.2886 139.05 30.1875 138.535 30.1875 138.009C30.1875 137.473 30.2886 136.967 30.4909 136.472C30.6932 135.986 30.9864 135.551 31.3606 135.177C31.7348 134.803 32.1697 134.51 32.6551 134.307C33.1507 134.105 33.6564 134.004 34.1924 134.004C34.7182 134.004 35.2239 134.105 35.7195 134.307C36.2049 134.51 36.6398 134.803 37.014 135.177C37.3881 135.551 37.6814 135.986 37.8837 136.472C38.086 136.967 38.1871 137.473 38.1871 138.009Z" fill="#E40010"></path><path d="M142 34.1822C142 34.7182 141.898 35.2239 141.696 35.7195C141.494 36.2049 141.211 36.6398 140.837 37.014C140.452 37.3881 140.028 37.6814 139.532 37.8837C139.047 38.086 138.531 38.1871 138.005 38.1871C137.469 38.1871 136.963 38.086 136.478 37.8837C135.982 37.6814 135.547 37.3881 135.173 37.014C134.799 36.6398 134.516 36.2049 134.303 35.7195C134.101 35.2239 134 34.7182 134 34.1822C134 33.6564 134.101 33.1406 134.303 32.6551C134.516 32.1697 134.799 31.7348 135.173 31.3606C135.547 30.9864 135.982 30.6932 136.478 30.4909C136.963 30.2886 137.469 30.1875 138.005 30.1875C138.531 30.1875 139.047 30.2886 139.532 30.4909C140.028 30.6932 140.452 30.9864 140.837 31.3606C141.211 31.7348 141.494 32.1697 141.696 32.6551C141.898 33.1406 142 33.6564 142 34.1822Z" fill="#E40010"></path><path d="M66.0078 165.819C66.0078 166.355 65.8965 166.861 65.6942 167.346C65.492 167.842 65.2088 168.276 64.8346 168.651C64.4604 169.025 64.0256 169.308 63.53 169.52C63.0446 169.723 62.5288 169.824 62.0029 169.824C61.477 169.824 60.9612 169.723 60.4758 169.52C59.9802 169.308 59.5454 169.025 59.1712 168.651C58.797 168.276 58.5138 167.842 58.3116 167.346C58.1093 166.861 57.998 166.355 57.998 165.819C57.998 165.293 58.1093 164.777 58.3116 164.292C58.5138 163.796 58.797 163.372 59.1712 162.987C59.5454 162.613 59.9802 162.33 60.4758 162.128C60.9612 161.925 61.477 161.824 62.0029 161.824C62.5288 161.824 63.0446 161.925 63.53 162.128C64.0256 162.33 64.4604 162.613 64.8346 162.987C65.2088 163.372 65.492 163.796 65.6942 164.292C65.8965 164.777 66.0078 165.293 66.0078 165.819Z" fill="#E40010"></path><path d="M142 165.819C142 166.355 141.898 166.861 141.696 167.346C141.494 167.842 141.211 168.276 140.837 168.651C140.452 169.025 140.028 169.308 139.532 169.52C139.047 169.723 138.531 169.824 138.005 169.824C137.469 169.824 136.963 169.723 136.478 169.52C135.982 169.308 135.547 169.025 135.173 168.651C134.799 168.276 134.516 167.842 134.303 167.346C134.101 166.861 134 166.355 134 165.819C134 165.293 134.101 164.777 134.303 164.292C134.516 163.796 134.799 163.372 135.173 162.987C135.547 162.613 135.982 162.33 136.478 162.128C136.963 161.925 137.469 161.824 138.005 161.824C138.531 161.824 139.047 161.925 139.532 162.128C140.028 162.33 140.452 162.613 140.837 162.987C141.211 163.372 141.494 163.796 141.696 164.292C141.898 164.777 142 165.293 142 165.819Z" fill="#E40010"></path><path d="M169.82 138.009C169.82 138.535 169.719 139.05 169.517 139.536C169.314 140.021 169.021 140.456 168.647 140.83C168.273 141.205 167.838 141.498 167.352 141.7C166.857 141.902 166.351 142.004 165.815 142.004C165.289 142.004 164.773 141.902 164.288 141.7C163.792 141.498 163.368 141.205 162.993 140.83C162.619 140.456 162.326 140.021 162.124 139.536C161.921 139.05 161.82 138.535 161.82 138.009C161.82 137.473 161.921 136.967 162.124 136.472C162.326 135.986 162.619 135.551 162.993 135.177C163.368 134.803 163.792 134.51 164.288 134.307C164.773 134.105 165.289 134.004 165.815 134.004C166.351 134.004 166.857 134.105 167.352 134.307C167.838 134.51 168.273 134.803 168.647 135.177C169.021 135.551 169.314 135.986 169.517 136.472C169.719 136.967 169.82 137.473 169.82 138.009Z" fill="#E40010"></path><path d="M79.2988 114.459H51.8008V106.338C56.8372 97.1149 65.2413 84.0384 75.2737 69H87.7332V106.652H95.5103V114.459H87.7332V125.361H79.2988V114.459ZM60.2049 106.844H79.4201V76.6861H78.9145C73.3319 84.7666 66.8392 94.7686 60.2049 106.298V106.844Z" fill="#E40010"></path><path d="M105.199 110.287C105.199 103.096 109.932 97.3923 117.153 95.9157V95.2482C111.298 93.7616 107.465 88.8769 107.465 82.8291C107.465 73.9194 115.312 67.6289 126.376 67.6289C137.43 67.6289 145.278 73.9194 145.278 82.8291C145.278 88.9173 141.526 93.7313 135.59 95.2482V95.9157C142.821 97.281 147.584 102.985 147.584 110.246C147.584 120.016 138.917 126.731 126.376 126.731C113.836 126.731 105.199 120.016 105.199 110.287ZM138.593 109.548C138.593 103.642 133.597 99.5868 126.366 99.5868C119.145 99.5868 114.139 103.652 114.139 109.548C114.139 115.404 119.145 119.459 126.366 119.459C133.597 119.459 138.593 115.404 138.593 109.548ZM136.682 83.6888C136.682 78.4096 132.545 74.8194 126.376 74.8194C120.197 74.8194 116.101 78.4096 116.101 83.6888C116.101 88.8769 120.238 92.4368 126.376 92.4368C132.505 92.4368 136.682 88.8769 136.682 83.6888Z" fill="#E40010"></path></svg>